<svg width="900" height="900" viewBox="0 0 900 900" fill="none" xmlns="http://www.w3.org/2000/svg">
<rect width="900" height="900" fill="#F87C56"/>
<path fill-rule="evenodd" clip-rule="evenodd" d="M534.071 205.246C531.574 202.742 528.389 201.036 524.921 200.345C521.453 199.653 517.858 200.007 514.591 201.361C511.324 202.715 508.532 205.008 506.571 207.95C504.609 210.893 503.565 214.351 503.571 217.887V271.451H289.286C265.606 271.451 242.896 280.857 226.151 297.599C209.407 314.341 200 337.049 200 360.726L200 414.29C200 423.761 203.763 432.844 210.46 439.541C217.158 446.238 226.242 450 235.714 450C245.186 450 254.27 446.238 260.968 439.541C267.666 432.844 271.429 423.761 271.429 414.29V360.726C271.429 355.99 273.31 351.449 276.659 348.1C280.008 344.752 284.55 342.871 289.286 342.871H503.571V396.435C503.565 399.971 504.609 403.43 506.571 406.372C508.532 409.314 511.324 411.607 514.591 412.961C517.858 414.315 521.453 414.669 524.921 413.977C528.389 413.286 531.574 411.58 534.071 409.077L623.357 319.802C625.02 318.144 626.34 316.173 627.24 314.004C628.14 311.835 628.603 309.51 628.603 307.161C628.603 304.813 628.14 302.487 627.24 300.318C626.34 298.149 625.02 296.178 623.357 294.52L534.071 205.246ZM385.357 487.067C388.629 488.411 391.429 490.696 393.4 493.634C395.371 496.571 396.425 500.027 396.429 503.565V557.129H610.714C615.45 557.129 619.992 555.248 623.341 551.9C626.69 548.551 628.571 544.01 628.571 539.274V485.71C628.571 476.239 632.334 467.156 639.032 460.459C645.73 453.762 654.814 450 664.286 450C673.758 450 682.842 453.762 689.54 460.459C696.237 467.156 700 476.239 700 485.71V539.274C700 550.998 697.691 562.607 693.204 573.438C688.717 584.269 682.14 594.111 673.849 602.401C665.558 610.691 655.715 617.267 644.882 621.753C634.05 626.239 622.439 628.549 610.714 628.549H396.429V682.113C396.435 685.649 395.391 689.107 393.429 692.05C391.468 694.992 388.676 697.285 385.409 698.639C382.143 699.993 378.547 700.347 375.079 699.655C371.611 698.964 368.426 697.258 365.929 694.754L276.643 605.48C274.98 603.822 273.66 601.851 272.76 599.682C271.86 597.513 271.397 595.187 271.397 592.839C271.397 590.49 271.86 588.165 272.76 585.996C273.66 583.827 274.98 581.856 276.643 580.198L365.929 490.923C368.428 488.428 371.611 486.729 375.076 486.043C378.54 485.357 382.095 485.713 385.357 487.067Z" fill="white"/>
</svg>
