<svg width="504" height="64" viewBox="0 0 504 64" fill="none" xmlns="http://www.w3.org/2000/svg">
<rect y="4" width="55" height="55" rx="27.5" fill="#F87C56"/>
<path fill-rule="evenodd" clip-rule="evenodd" d="M31.7036 19.2623C31.5787 19.1371 31.4195 19.0518 31.2461 19.0172C31.0726 18.9827 30.8929 19.0003 30.7295 19.068C30.5662 19.1357 30.4266 19.2504 30.3285 19.3975C30.2304 19.5446 30.1783 19.7175 30.1786 19.8943V22.5726H19.4643C18.2803 22.5726 17.1448 23.0429 16.3076 23.88C15.4703 24.7171 15 25.8524 15 27.0363L15 29.7145C15 30.1881 15.1881 30.6422 15.523 30.977C15.8579 31.3119 16.3121 31.5 16.7857 31.5C17.2593 31.5 17.7135 31.3119 18.0484 30.977C18.3833 30.6422 18.5714 30.1881 18.5714 29.7145V27.0363C18.5714 26.7995 18.6655 26.5724 18.8329 26.405C19.0004 26.2376 19.2275 26.1435 19.4643 26.1435H30.1786V28.8218C30.1783 28.9986 30.2304 29.1715 30.3285 29.3186C30.4266 29.4657 30.5662 29.5804 30.7295 29.6481C30.8929 29.7158 31.0726 29.7334 31.2461 29.6989C31.4195 29.6643 31.5787 29.579 31.7036 29.4538L36.1679 24.9901C36.251 24.9072 36.317 24.8087 36.362 24.7002C36.407 24.5918 36.4302 24.4755 36.4302 24.3581C36.4302 24.2406 36.407 24.1244 36.362 24.0159C36.317 23.9074 36.251 23.8089 36.1679 23.726L31.7036 19.2623ZM24.2679 33.3533C24.4315 33.4205 24.5714 33.5348 24.67 33.6817C24.7685 33.8285 24.8213 34.0014 24.8214 34.1782V36.8565H35.5357C35.7725 36.8565 35.9996 36.7624 36.1671 36.595C36.3345 36.4276 36.4286 36.2005 36.4286 35.9637V33.2855C36.4286 32.8119 36.6167 32.3578 36.9516 32.023C37.2865 31.6881 37.7407 31.5 38.2143 31.5C38.6879 31.5 39.1421 31.6881 39.477 32.023C39.8119 32.3578 40 32.8119 40 33.2855V35.9637C40 36.5499 39.8845 37.1303 39.6602 37.6719C39.4358 38.2135 39.107 38.7055 38.6924 39.12C38.2779 39.5345 37.7858 39.8633 37.2441 40.0876C36.7025 40.312 36.122 40.4274 35.5357 40.4274H24.8214V43.1057C24.8217 43.2825 24.7696 43.4554 24.6715 43.6025C24.5734 43.7496 24.4338 43.8643 24.2705 43.932C24.1071 43.9997 23.9274 44.0173 23.7539 43.9828C23.5805 43.9482 23.4213 43.8629 23.2964 43.7377L18.8321 39.274C18.749 39.1911 18.683 39.0926 18.638 38.9841C18.593 38.8756 18.5698 38.7594 18.5698 38.6419C18.5698 38.5245 18.593 38.4082 18.638 38.2998C18.683 38.1913 18.749 38.0928 18.8321 38.0099L23.2964 33.5462C23.4214 33.4214 23.5806 33.3365 23.7538 33.3021C23.927 33.2678 24.1048 33.2856 24.2679 33.3533Z" fill="white"/>
<path d="M99.7 51H92.05C90.65 51 89.3 50.775 88 50.325C86.75 49.875 85.725 49.15 84.925 48.15C84.125 47.1 83.725 45.7 83.725 43.95V32.85L84.325 30.975C84.325 28.675 84.075 27.025 83.575 26.025C83.075 25.025 81.75 24.525 79.6 24.525C77.45 24.525 75.275 25.05 73.075 26.1C70.875 27.15 69 28.55 67.45 30.3L61.45 20.4C63 19 64.75 17.775 66.7 16.725C68.65 15.625 70.775 14.775 73.075 14.175C75.375 13.525 77.8 13.2 80.35 13.2C85.1 13.2 88.85 14.375 91.6 16.725C94.35 19.075 95.725 22.625 95.725 27.375V38.55C95.725 39.35 95.85 39.925 96.1 40.275C96.4 40.575 96.875 40.725 97.525 40.725H99.7V51ZM72.175 51.825C69.475 51.825 67.175 51.1 65.275 49.65C63.425 48.2 62.5 45.8 62.5 42.45C62.5 39.45 63.4 37.05 65.2 35.25C67.05 33.4 70.025 31.85 74.125 30.6L84.925 27.3L85.9 35.025L77.65 37.95C76.4 38.4 75.55 38.825 75.1 39.225C74.7 39.625 74.5 40.075 74.5 40.575C74.5 41.175 74.725 41.65 75.175 42C75.675 42.3 76.4 42.45 77.35 42.45C78.45 42.45 79.4 42.35 80.2 42.15C81 41.9 81.65 41.55 82.15 41.1C82.7 40.65 83.1 40.075 83.35 39.375C83.6 38.675 83.725 37.85 83.725 36.9L83.875 40.425C83.525 42.075 82.925 43.775 82.075 45.525C81.275 47.275 80.075 48.775 78.475 50.025C76.925 51.225 74.825 51.825 72.175 51.825ZM139.861 51H126.361V30.3C126.361 28.05 126.061 26.35 125.461 25.2C124.861 24 123.536 23.4 121.486 23.4C120.186 23.4 119.186 23.6 118.486 24C117.786 24.4 117.286 25.15 116.986 26.25C116.736 27.3 116.611 28.825 116.611 30.825L116.386 26.55C116.636 24.3 117.186 22.15 118.036 20.1C118.936 18.05 120.236 16.4 121.936 15.15C123.686 13.85 125.961 13.2 128.761 13.2C132.211 13.2 134.911 14.225 136.861 16.275C138.861 18.325 139.861 21.25 139.861 25.05V51ZM116.611 51H103.111V13.95H116.611V51ZM159.165 10.575H145.665V0.749999H159.165V10.575ZM159.165 51H145.665V13.95H159.165V51ZM223.647 51H210.147V30.3C210.147 28.05 209.847 26.35 209.247 25.2C208.697 24 207.497 23.4 205.647 23.4C204.497 23.4 203.572 23.6 202.872 24C202.222 24.4 201.772 25.15 201.522 26.25C201.272 27.3 201.147 28.825 201.147 30.825L200.922 26.55C201.172 24.3 201.697 22.15 202.497 20.1C203.297 18.05 204.547 16.4 206.247 15.15C207.997 13.85 210.347 13.2 213.297 13.2C216.547 13.2 219.072 14.225 220.872 16.275C222.722 18.325 223.647 21.25 223.647 25.05V51ZM178.647 51H165.147V13.95H178.647V51ZM201.147 51H187.647V30.3C187.647 28.05 187.347 26.35 186.747 25.2C186.197 24 184.997 23.4 183.147 23.4C181.997 23.4 181.072 23.6 180.372 24C179.722 24.4 179.272 25.15 179.022 26.25C178.772 27.3 178.647 28.825 178.647 30.825L178.422 26.55C178.672 24.3 179.197 22.15 179.997 20.1C180.797 18.05 182.047 16.4 183.747 15.15C185.497 13.85 187.847 13.2 190.797 13.2C194.047 13.2 196.572 14.225 198.372 16.275C200.222 18.325 201.147 21.25 201.147 25.05V51ZM265.154 51H257.504C256.104 51 254.754 50.775 253.454 50.325C252.204 49.875 251.179 49.15 250.379 48.15C249.579 47.1 249.179 45.7 249.179 43.95V32.85L249.779 30.975C249.779 28.675 249.529 27.025 249.029 26.025C248.529 25.025 247.204 24.525 245.054 24.525C242.904 24.525 240.729 25.05 238.529 26.1C236.329 27.15 234.454 28.55 232.904 30.3L226.904 20.4C228.454 19 230.204 17.775 232.154 16.725C234.104 15.625 236.229 14.775 238.529 14.175C240.829 13.525 243.254 13.2 245.804 13.2C250.554 13.2 254.304 14.375 257.054 16.725C259.804 19.075 261.179 22.625 261.179 27.375V38.55C261.179 39.35 261.304 39.925 261.554 40.275C261.854 40.575 262.329 40.725 262.979 40.725H265.154V51ZM237.629 51.825C234.929 51.825 232.629 51.1 230.729 49.65C228.879 48.2 227.954 45.8 227.954 42.45C227.954 39.45 228.854 37.05 230.654 35.25C232.504 33.4 235.479 31.85 239.579 30.6L250.379 27.3L251.354 35.025L243.104 37.95C241.854 38.4 241.004 38.825 240.554 39.225C240.154 39.625 239.954 40.075 239.954 40.575C239.954 41.175 240.179 41.65 240.629 42C241.129 42.3 241.854 42.45 242.804 42.45C243.904 42.45 244.854 42.35 245.654 42.15C246.454 41.9 247.104 41.55 247.604 41.1C248.154 40.65 248.554 40.075 248.804 39.375C249.054 38.675 249.179 37.85 249.179 36.9L249.329 40.425C248.979 42.075 248.379 43.775 247.529 45.525C246.729 47.275 245.529 48.775 243.929 50.025C242.379 51.225 240.279 51.825 237.629 51.825ZM283.958 51.75C280.758 51.75 278.183 51.2 276.233 50.1C274.333 48.95 272.958 47.425 272.108 45.525C271.258 43.625 270.833 41.475 270.833 39.075V9.75L284.333 3.75V37.125C284.333 38.075 284.558 38.8 285.008 39.3C285.508 39.8 286.183 40.05 287.033 40.05C287.883 40.05 288.733 39.775 289.583 39.225C290.483 38.675 291.233 37.925 291.833 36.975L295.508 47.1C294.708 48 293.333 49 291.383 50.1C289.433 51.2 286.958 51.75 283.958 51.75ZM293.333 24.15H265.583V13.95H293.333V24.15ZM315.576 51.75C311.326 51.75 307.726 50.925 304.776 49.275C301.826 47.625 299.576 45.35 298.026 42.45C296.526 39.55 295.776 36.225 295.776 32.475C295.776 28.725 296.526 25.4 298.026 22.5C299.576 19.6 301.726 17.325 304.476 15.675C307.276 14.025 310.551 13.2 314.301 13.2C318.551 13.2 322.001 14.025 324.651 15.675C327.301 17.325 329.251 19.475 330.501 22.125C331.801 24.775 332.451 27.6 332.451 30.6C332.451 31.5 332.401 32.525 332.301 33.675C332.251 34.825 332.176 35.625 332.076 36.075H305.151V29.1H322.176L320.376 29.925C320.376 27.775 319.926 26.125 319.026 24.975C318.126 23.825 316.576 23.25 314.376 23.25C312.426 23.25 310.876 23.8 309.726 24.9C308.626 26 308.076 27.65 308.076 29.85V33.975C308.076 35.675 308.401 37.05 309.051 38.1C309.751 39.1 310.676 39.825 311.826 40.275C313.026 40.725 314.351 40.95 315.801 40.95C317.051 40.95 318.151 40.825 319.101 40.575C320.101 40.275 320.976 39.825 321.726 39.225C322.526 38.575 323.151 37.725 323.601 36.675L331.776 44.475C330.376 46.325 328.376 48 325.776 49.5C323.226 51 319.826 51.75 315.576 51.75Z" fill="#212121"/>
<path d="M341.32 63.71V15.9H343.91L344.4 23.46C345.66 20.5667 347.433 18.4433 349.72 17.09C352.053 15.7367 354.667 15.06 357.56 15.06C360.873 15.06 363.673 15.8533 365.96 17.44C368.247 18.98 369.997 21.08 371.21 23.74C372.423 26.4 373.03 29.3867 373.03 32.7C373.03 36.0133 372.423 39 371.21 41.66C369.997 44.32 368.247 46.4433 365.96 48.03C363.673 49.57 360.873 50.34 357.56 50.34C354.573 50.34 351.96 49.6633 349.72 48.31C347.48 46.9567 345.753 44.9267 344.54 42.22V63.71H341.32ZM344.61 32.7C344.61 35.5 345.1 38.02 346.08 40.26C347.06 42.4533 348.483 44.2033 350.35 45.51C352.263 46.77 354.55 47.4 357.21 47.4C359.87 47.4 362.133 46.77 364 45.51C365.867 44.2033 367.29 42.4533 368.27 40.26C369.25 38.02 369.74 35.5 369.74 32.7C369.74 29.8533 369.25 27.3333 368.27 25.14C367.29 22.9 365.867 21.15 364 19.89C362.133 18.63 359.87 18 357.21 18C354.55 18 352.263 18.63 350.35 19.89C348.483 21.15 347.06 22.9 346.08 25.14C345.1 27.3333 344.61 29.8533 344.61 32.7ZM397.204 15.41V18.21H394.684C391.557 18.21 389.06 19.2367 387.194 21.29C385.327 23.2967 384.394 25.8867 384.394 29.06V49.5H381.174V15.9H384.184L384.534 22.34H384.184C384.65 20.1467 385.794 18.3967 387.614 17.09C389.48 15.7367 391.697 15.06 394.264 15.06C394.777 15.06 395.244 15.0833 395.664 15.13C396.13 15.1767 396.644 15.27 397.204 15.41ZM416.22 50.34C413 50.34 410.177 49.6167 407.75 48.17C405.323 46.6767 403.433 44.6233 402.08 42.01C400.727 39.35 400.05 36.27 400.05 32.77C400.05 29.27 400.703 26.19 402.01 23.53C403.363 20.87 405.207 18.7933 407.54 17.3C409.92 15.8067 412.673 15.06 415.8 15.06C418.74 15.06 421.307 15.7133 423.5 17.02C425.74 18.3267 427.467 20.1467 428.68 22.48C429.94 24.7667 430.57 27.45 430.57 30.53V32.77H401.87L402.01 30.11H427.28C427.28 26.47 426.23 23.5533 424.13 21.36C422.03 19.12 419.253 18 415.8 18C413.327 18 411.133 18.5833 409.22 19.75C407.353 20.9167 405.883 22.5733 404.81 24.72C403.783 26.82 403.27 29.27 403.27 32.07C403.27 36.8767 404.413 40.6333 406.7 43.34C408.987 46.0467 412.16 47.4 416.22 47.4C419.207 47.4 421.633 46.77 423.5 45.51C425.367 44.2033 426.627 42.3133 427.28 39.84H430.57C429.59 43.2933 427.887 45.9067 425.46 47.68C423.08 49.4533 420 50.34 416.22 50.34ZM435.654 40.4H438.804C438.804 42.5467 439.55 44.25 441.044 45.51C442.584 46.77 444.637 47.4 447.204 47.4C450.05 47.4 452.29 46.8167 453.924 45.65C455.557 44.4367 456.374 42.8033 456.374 40.75C456.374 39.1167 455.93 37.8333 455.044 36.9C454.157 35.9667 452.617 35.22 450.424 34.66L444.754 33.19C441.907 32.4433 439.784 31.3 438.384 29.76C436.984 28.22 436.284 26.4233 436.284 24.37C436.284 22.5033 436.75 20.87 437.684 19.47C438.664 18.07 440.017 16.9967 441.744 16.25C443.517 15.4567 445.547 15.06 447.834 15.06C450.167 15.06 452.174 15.4567 453.854 16.25C455.534 17.0433 456.84 18.1633 457.774 19.61C458.754 21.0567 459.267 22.8067 459.314 24.86H456.164C456.07 22.6667 455.277 20.9867 453.784 19.82C452.337 18.6067 450.354 18 447.834 18C445.127 18 443.05 18.56 441.604 19.68C440.204 20.7533 439.504 22.3167 439.504 24.37C439.504 27.31 441.51 29.2933 445.524 30.32L451.124 31.79C454.064 32.5367 456.21 33.6333 457.564 35.08C458.917 36.5267 459.594 38.4167 459.594 40.75C459.594 42.6633 459.08 44.3433 458.054 45.79C457.027 47.2367 455.604 48.3567 453.784 49.15C451.964 49.9433 449.817 50.34 447.344 50.34C443.797 50.34 440.95 49.4533 438.804 47.68C436.704 45.86 435.654 43.4333 435.654 40.4ZM465.185 40.4H468.335C468.335 42.5467 469.082 44.25 470.575 45.51C472.115 46.77 474.168 47.4 476.735 47.4C479.582 47.4 481.822 46.8167 483.455 45.65C485.088 44.4367 485.905 42.8033 485.905 40.75C485.905 39.1167 485.462 37.8333 484.575 36.9C483.688 35.9667 482.148 35.22 479.955 34.66L474.285 33.19C471.438 32.4433 469.315 31.3 467.915 29.76C466.515 28.22 465.815 26.4233 465.815 24.37C465.815 22.5033 466.282 20.87 467.215 19.47C468.195 18.07 469.548 16.9967 471.275 16.25C473.048 15.4567 475.078 15.06 477.365 15.06C479.698 15.06 481.705 15.4567 483.385 16.25C485.065 17.0433 486.372 18.1633 487.305 19.61C488.285 21.0567 488.798 22.8067 488.845 24.86H485.695C485.602 22.6667 484.808 20.9867 483.315 19.82C481.868 18.6067 479.885 18 477.365 18C474.658 18 472.582 18.56 471.135 19.68C469.735 20.7533 469.035 22.3167 469.035 24.37C469.035 27.31 471.042 29.2933 475.055 30.32L480.655 31.79C483.595 32.5367 485.742 33.6333 487.095 35.08C488.448 36.5267 489.125 38.4167 489.125 40.75C489.125 42.6633 488.612 44.3433 487.585 45.79C486.558 47.2367 485.135 48.3567 483.315 49.15C481.495 49.9433 479.348 50.34 476.875 50.34C473.328 50.34 470.482 49.4533 468.335 47.68C466.235 45.86 465.185 43.4333 465.185 40.4Z" fill="#212121"/>
</svg>
