<svg width="64" height="64" viewBox="0 0 48 48" xmlns="http://www.w3.org/2000/svg">
    <g fill="none">
        <path fill="#ffffff" stroke="#ffffff" stroke-linejoin="round" stroke-width="4" d="m6 42l8.674-24.736L31 34.038z"/>
        <path stroke="#ffffff" stroke-linecap="round" stroke-linejoin="round" stroke-width="4" d="m23 19l5-5c2.667-2.667 3-5 1-7m0 18l5-5c3.333-3.333 6.667-3.333 10 0"/>
        <path fill="#ffffff" d="M20 7a2 2 0 1 0 0-4a2 2 0 0 0 0 4m22-1a2 2 0 1 0 0-4a2 2 0 0 0 0 4m0 23a2 2 0 1 0 0-4a2 2 0 0 0 0 4m-3 9a2 2 0 1 0 0-4a2 2 0 0 0 0 4"/>
    </g>
</svg>