<svg xmlns="http://www.w3.org/2000/svg" width="20" height="21" viewBox="0 0 20 21" fill="none">
  <path
    d="M9.95842 15.5C10.2501 15.5 10.4967 15.3992 10.6984 15.1975C10.9001 14.9958 11.0006 14.7495 11.0001 14.4583C11.0001 14.1667 10.8995 13.92 10.6984 13.7183C10.4973 13.5167 10.2506 13.4161 9.95842 13.4167C9.66675 13.4167 9.42036 13.5175 9.21925 13.7192C9.01814 13.9208 8.9173 14.1672 8.91675 14.4583C8.91675 14.75 9.01758 14.9967 9.21925 15.1983C9.42092 15.4 9.6673 15.5006 9.95842 15.5ZM9.20842 12.2917H10.7501C10.7501 11.8333 10.8023 11.4722 10.9067 11.2083C11.0112 10.9445 11.3062 10.5833 11.7917 10.125C12.1529 9.7639 12.4376 9.42001 12.6459 9.09334C12.8542 8.76667 12.9584 8.37445 12.9584 7.91667C12.9584 7.13889 12.6737 6.54167 12.1042 6.12501C11.5348 5.70834 10.8612 5.50001 10.0834 5.50001C9.29175 5.50001 8.64953 5.70834 8.15675 6.12501C7.66397 6.54167 7.32008 7.04167 7.12508 7.62501L8.50008 8.16667C8.56953 7.91667 8.72591 7.64584 8.96925 7.35417C9.21258 7.06251 9.58397 6.91667 10.0834 6.91667C10.5279 6.91667 10.8612 7.03834 11.0834 7.28167C11.3056 7.52501 11.4167 7.79223 11.4167 8.08334C11.4167 8.36112 11.3334 8.62167 11.1667 8.86501C11.0001 9.10834 10.7917 9.3339 10.5417 9.54167C9.93064 10.0833 9.55564 10.4931 9.41675 10.7708C9.27786 11.0486 9.20842 11.5556 9.20842 12.2917ZM10.0001 18.8333C8.8473 18.8333 7.76397 18.6147 6.75008 18.1775C5.73619 17.7403 4.85425 17.1464 4.10425 16.3958C3.35425 15.6458 2.76064 14.7639 2.32341 13.75C1.88619 12.7361 1.6673 11.6528 1.66675 10.5C1.66675 9.34723 1.88564 8.2639 2.32341 7.25001C2.76119 6.23612 3.3548 5.35417 4.10425 4.60417C4.85425 3.85417 5.73619 3.26056 6.75008 2.82334C7.76397 2.38612 8.8473 2.16723 10.0001 2.16667C11.1529 2.16667 12.2362 2.38556 13.2501 2.82334C14.264 3.26112 15.1459 3.85473 15.8959 4.60417C16.6459 5.35417 17.2398 6.23612 17.6776 7.25001C18.1154 8.2639 18.334 9.34723 18.3334 10.5C18.3334 11.6528 18.1145 12.7361 17.6768 13.75C17.239 14.7639 16.6454 15.6458 15.8959 16.3958C15.1459 17.1458 14.264 17.7397 13.2501 18.1775C12.2362 18.6153 11.1529 18.8339 10.0001 18.8333Z"
    fill="#f87c56" />
</svg>