<svg width="300" height="300" viewBox="0 0 25 26" fill="none" xmlns="http://www.w3.org/2000/svg">
<path d="M10.1564 25.5C9.90954 25.5012 9.66813 25.4271 9.46448 25.2875C9.26083 25.1479 9.10464 24.9495 9.01677 24.7187L7.0714 19.6601C7.032 19.5582 6.97173 19.4656 6.89445 19.3883C6.81717 19.3111 6.72459 19.2508 6.62266 19.2114L1.56245 17.2646C1.33195 17.1761 1.13369 17.0198 0.99384 16.8164C0.853991 16.6129 0.779126 16.3718 0.779126 16.1249C0.779126 15.878 0.853991 15.637 0.99384 15.4335C1.13369 15.23 1.33195 15.0738 1.56245 14.9853L6.62119 13.04C6.72313 13.0006 6.81571 12.9403 6.89298 12.863C6.97026 12.7857 7.03053 12.6932 7.06993 12.5912L9.01677 7.53115C9.10524 7.30065 9.26152 7.1024 9.46499 6.96255C9.66846 6.8227 9.90955 6.74784 10.1564 6.74784C10.4033 6.74784 10.6444 6.8227 10.8479 6.96255C11.0514 7.1024 11.2077 7.30065 11.2961 7.53115L13.2415 12.5898C13.2809 12.6917 13.3412 12.7843 13.4184 12.8616C13.4957 12.9388 13.5883 12.9991 13.6902 13.0385L18.7197 14.9736C18.9596 15.0625 19.1662 15.2232 19.3115 15.4337C19.4568 15.6443 19.5337 15.8945 19.5317 16.1503C19.528 16.3929 19.4515 16.6288 19.3122 16.8275C19.173 17.0261 18.9772 17.1784 18.7504 17.2646L13.6917 19.2099C13.5898 19.2493 13.4972 19.3096 13.4199 19.3869C13.3426 19.4641 13.2824 19.5567 13.243 19.6586L11.2961 24.7187C11.2083 24.9495 11.0521 25.1479 10.8484 25.2875C10.6448 25.4271 10.4034 25.5012 10.1564 25.5ZM4.29691 9.09366C4.15215 9.09365 4.0108 9.04979 3.89147 8.96785C3.77214 8.88592 3.68043 8.76976 3.62843 8.63467L2.80516 6.49403C2.78732 6.44722 2.75978 6.4047 2.72435 6.36928C2.68893 6.33385 2.64641 6.30631 2.59959 6.28847L0.458905 5.46522C0.323833 5.41321 0.207686 5.3215 0.125767 5.20217C0.0438479 5.08284 0 4.9415 0 4.79676C0 4.65202 0.0438479 4.51068 0.125767 4.39135C0.207686 4.27203 0.323833 4.18031 0.458905 4.1283L2.59959 3.30505C2.64636 3.28713 2.68884 3.25956 2.72426 3.22415C2.75967 3.18873 2.78724 3.14626 2.80516 3.09949L3.62111 0.977895C3.66712 0.852993 3.7463 0.742992 3.85015 0.659714C3.95399 0.576436 4.07856 0.52303 4.21048 0.505236C4.36886 0.485983 4.52913 0.520153 4.66588 0.602326C4.80263 0.684499 4.90804 0.809973 4.96538 0.958852L5.78865 3.09949C5.80657 3.14626 5.83414 3.18873 5.86956 3.22415C5.90497 3.25956 5.94745 3.28713 5.99422 3.30505L8.13491 4.1283C8.26998 4.18031 8.38613 4.27203 8.46805 4.39135C8.54996 4.51068 8.59381 4.65202 8.59381 4.79676C8.59381 4.9415 8.54996 5.08284 8.46805 5.20217C8.38613 5.3215 8.26998 5.41321 8.13491 5.46522L5.99422 6.28847C5.9474 6.30631 5.90489 6.33385 5.86946 6.36928C5.83403 6.4047 5.80649 6.44722 5.78865 6.49403L4.96538 8.63467C4.91338 8.76976 4.82167 8.88592 4.70234 8.96785C4.58301 9.04979 4.44166 9.09365 4.29691 9.09366ZM19.5317 12.9999C19.3738 12.9999 19.2196 12.952 19.0895 12.8625C18.9593 12.7731 18.8593 12.6463 18.8027 12.4989L17.6874 9.60001C17.6678 9.54892 17.6377 9.50253 17.599 9.46384C17.5603 9.42515 17.5139 9.39501 17.4628 9.3754L14.5638 8.26016C14.4165 8.20341 14.2899 8.10338 14.2006 7.97325C14.1112 7.84312 14.0634 7.68898 14.0634 7.53115C14.0634 7.37331 14.1112 7.21918 14.2006 7.08905C14.2899 6.95892 14.4165 6.85889 14.5638 6.80214L17.4628 5.6869C17.5139 5.66728 17.5603 5.63715 17.599 5.59846C17.6377 5.55976 17.6678 5.51337 17.6874 5.46229L18.7944 2.58386C18.8449 2.44774 18.9314 2.32787 19.0447 2.23699C19.1579 2.1461 19.2936 2.08762 19.4375 2.06774C19.6103 2.04682 19.7852 2.08422 19.9343 2.17401C20.0835 2.2638 20.1984 2.40083 20.2607 2.56335L21.376 5.46229C21.3956 5.51337 21.4258 5.55976 21.4645 5.59846C21.5032 5.63715 21.5495 5.66728 21.6006 5.6869L24.4996 6.80214C24.6469 6.85889 24.7736 6.95892 24.8629 7.08905C24.9522 7.21918 25 7.37331 25 7.53115C25 7.68898 24.9522 7.84312 24.8629 7.97325C24.7736 8.10338 24.6469 8.20341 24.4996 8.26016L21.6006 9.3754C21.5495 9.39501 21.5032 9.42515 21.4645 9.46384C21.4258 9.50253 21.3956 9.54892 21.376 9.60001L20.2607 12.4989C20.2041 12.6463 20.1041 12.7731 19.974 12.8625C19.8438 12.952 19.6896 12.9999 19.5317 12.9999Z" fill="#F87C56"/>
</svg>
